<svg width="640" height="480" viewBox="0 0 640 480" fill="none" xmlns="http://www.w3.org/2000/svg" role="img" aria-labelledby="title desc">
  <title id="title">Remote team collaborating online</title>
  <desc id="desc">Illustration of diverse professionals in a virtual workspace with charts and messaging panels.</desc>
  <rect width="640" height="480" rx="32" fill="url(#paint0_linear)" />
  <g opacity="0.9">
    <rect x="60" y="92" width="520" height="296" rx="24" fill="white" fill-opacity="0.94"/>
    <rect x="98" y="132" width="180" height="120" rx="18" fill="#E0ECFF"/>
    <rect x="320" y="132" width="200" height="60" rx="16" fill="#F0F4FF"/>
    <rect x="320" y="212" width="200" height="60" rx="16" fill="#F0F4FF"/>
    <rect x="98" y="276" width="422" height="60" rx="16" fill="#EEF6FF"/>
    <circle cx="148" cy="192" r="44" fill="#A5C8FF"/>
    <path d="M148 158C140 158 132 162 126 169C120 176 116 186 116 196H180C180 186 176 176 170 169C164 162 156 158 148 158Z" fill="#7EAFFB"/>
    <rect x="324" y="144" width="60" height="12" rx="6" fill="#95B8FF"/>
    <rect x="324" y="224" width="80" height="12" rx="6" fill="#95B8FF"/>
    <rect x="324" y="168" width="120" height="12" rx="6" fill="#C4D9FF"/>
    <rect x="324" y="248" width="160" height="12" rx="6" fill="#C4D9FF"/>
    <rect x="324" y="300" width="130" height="16" rx="8" fill="#7EAFFB"/>
    <rect x="468" y="300" width="52" height="16" rx="8" fill="#C4D9FF"/>
    <circle cx="402" cy="336" r="20" fill="#A5C8FF"/>
    <circle cx="458" cy="336" r="16" fill="#D2E3FF"/>
    <circle cx="510" cy="336" r="12" fill="#E5EEFF"/>
  </g>
  <g opacity="0.85">
    <rect x="120" y="70" width="120" height="32" rx="16" fill="#1F56C3"/>
    <rect x="110" y="372" width="160" height="48" rx="24" fill="white" fill-opacity="0.92"/>
    <text x="138" y="94" fill="white" font-family="Poppins, Arial, sans-serif" font-weight="600" font-size="16">Team UPLIFT</text>
    <text x="130" y="402" fill="#1F2937" font-family="Poppins, Arial, sans-serif" font-weight="600" font-size="18">99.9% uptime</text>
  </g>
  <defs>
    <linearGradient id="paint0_linear" x1="64" y1="36" x2="576" y2="444" gradientUnits="userSpaceOnUse">
      <stop stop-color="#0A1F4F"/>
      <stop offset="1" stop-color="#091830"/>
    </linearGradient>
  </defs>
</svg>
